# xmcd CD database file
#
# Track frame offsets:
#	150
#	15951
#	34275
#	70682
#	93301
#	108595
#	128944
#	155308
#	180042
#	195199
#	226381
#	237754
#
# Disc length: 3213 seconds
#
# Revision: 0
# Processed by: cddbd v1.5PL3 Copyright (c) Steve Scherf et al.
# Submitted via: CDex 1.51
#
DISCID=830c8b0c
DTITLE=Kali und Mandala Dakini  - Bridge to Heaven 
DYEAR=1900
DGENRE=New Age
TTITLE0=In your Eyes
TTITLE1=This Presence
TTITLE2=My sweet Lord
TTITLE3=Bridge to Heaven
TTITLE4=Hanumanji
TTITLE5=Singing and Dancing
TTITLE6=Om Tara
TTITLE7=In Tears
TTITLE8=Metta
TTITLE9=Durga
TTITLE10=Celebration
TTITLE11=Papaji's Blessings and the Ganga
EXTD=
EXTT0=
EXTT1=
EXTT2=
EXTT3=
EXTT4=
EXTT5=
EXTT6=
EXTT7=
EXTT8=
EXTT9=
EXTT10=
EXTT11=
PLAYORDER=
